<svg xmlns="http://www.w3.org/2000/svg" version="1.0" width="300.000000pt" height="392.000000pt" viewBox="0 0 300.000000 392.000000" preserveAspectRatio="xMidYMid meet">
<metadata>
Created by potrace 1.10, written by Peter Selinger 2001-2011
</metadata>
<g transform="translate(0.000000,392.000000) scale(0.100000,-0.100000)" fill="#000000" stroke="none">
<path d="M430 3794 c-54 -19 -97 -56 -119 -104 -15 -32 -16 -182 -19 -1634 -2 -1412 -1 -1605 13 -1650 17 -59 38 -86 86 -115 34 -21 39 -21 1100 -21 l1065 0 45 29 c31 19 52 43 67 75 l22 46 0 1388 0 1388 -22 44 c-13 24 -40 58 -61 74 l-39 31 -326 5 -327 5 -45 27 c-86 51 -140 135 -140 218 0 89 -44 155 -128 191 -41 18 -77 19 -585 19 -462 -1 -549 -3 -587 -16z m1202 -59 c43 -37 57 -68 73 -161 15 -85 39 -128 100 -182 76 -67 108 -72 436 -72 181 0 290 -4 294 -10 3 -5 14 -10 24 -10 10 0 30 -11 44 -24 59 -55 57 13 57 -1476 l0 -1366 -25 -52 c-14 -29 -30 -52 -37 -52 -6 0 -20 -8 -31 -17 -18 -17 -83 -18 -1066 -18 -1012 0 -1049 1 -1087 19 -21 11 -49 35 -62 53 l-22 34 0 1632 0 1631 21 30 c36 52 67 69 138 75 36 3 300 4 587 1 l521 -5 35 -30z"/>

</g>
</svg>